<svg width="50" height="51" viewBox="0 0 50 51" fill="none" xmlns="http://www.w3.org/2000/svg">
<path d="M42.7798 43.201L36.8231 42.118C35.8828 44.581 35.2407 45.8839 33.935 48.0746C31.6831 47.5533 30.5014 47.0035 28.5199 45.6077C27.2838 47.5773 26.5395 48.684 25.0903 50.6619C23.6227 48.6969 22.853 47.5557 21.6005 45.4272C19.2565 46.4632 17.9557 47.0803 15.4031 47.7738C14.1201 45.5409 13.6424 44.303 13.1769 42.118C10.8766 42.6954 9.58642 42.8362 7.28039 43.1408C7.70003 40.7149 7.95482 39.496 8.48375 37.1841C6.01848 36.2383 4.70902 35.5019 2.46691 34.2961C3.09769 32.0118 3.57823 30.9058 4.81348 28.8809C2.75981 27.6113 1.8383 26.6998 0 25.3911L5.11432 22.142L7.22022 22.2022L8.90493 21.2997C7.86678 19.7511 7.43839 18.7161 6.85921 17.0277L10.1685 15.8845H10.8035C11.2317 17.1808 11.7544 18.4815 12.4549 20.0361L14.0193 19.6149C13.7127 18.8028 13.4916 18.0865 13.3227 17.3285H14.4885C14.6316 18.1302 14.8441 18.9773 15.1625 20.0361C10.1193 21.2728 7.54661 22.4969 3.12876 25.6318C5.55785 27.2794 7.20082 28.4061 9.10649 29.3567L7.81363 29.3581L7.09988 29.0012C5.69614 30.6332 5.22704 31.6593 4.63297 33.574C6.59804 34.7207 7.78475 35.2501 10.1083 35.9206L10.6498 34.2359C8.86989 33.7199 7.90068 33.2583 6.25752 32.491C6.71672 31.2157 7.04252 30.6237 7.82741 29.3622H9.11757C10.062 29.8329 11.0566 30.2754 12.2142 30.7461L13.0056 30.7512C11.2814 34.0561 10.451 36.7299 9.50662 41.2154C13.6824 40.5356 15.9533 39.9855 19.6751 38.207L19.3141 36.8231C16.6588 37.6751 15.2922 37.834 12.9362 37.9062C13.0272 37.0271 13.1233 36.242 13.2557 35.4994H13.7327C13.7055 35.7227 13.7015 35.9438 13.7184 36.2214C15.6803 36.3475 16.8937 36.2785 19.4946 35.6198C20.3996 38.6946 21.2297 40.8457 22.3032 42.9519L21.5447 42.9538C21.3248 42.6135 21.1804 42.3186 20.9988 41.8773C19.4765 42.7244 18.5812 43.1686 16.8472 43.8628C16.1794 42.7574 15.9158 42.0366 15.6438 40.5536L14.7413 40.8544C15.1418 43.1535 15.5174 44.2323 16.3658 45.9086C18.6726 45.0831 19.8773 44.5367 21.8412 43.3815C21.7285 43.2272 21.6331 43.0904 21.5489 42.9603H22.3075C23.0729 44.461 23.962 45.9394 25.0903 47.7136C26.2056 46.157 27.05 44.8798 27.8114 43.562H28.5199C30.1255 44.9002 31.1679 45.4099 33.0927 46.2094C34.3325 44.1386 34.8303 42.9078 35.4392 40.6137L33.7545 40.0722C33.2584 41.8582 32.8958 42.8104 32.0698 44.4044C30.7561 43.9263 30.0686 43.5882 28.941 42.84L28.5238 43.5552L27.8182 43.5502C28.6882 42.0432 29.4502 40.4818 30.3851 38.3875L28.941 37.5452C27.7639 39.8145 27.0057 40.9922 25.3309 42.7798C22.6537 39.7206 21.7314 37.7591 20.9988 33.8749C18.341 34.6566 16.7659 34.76 13.8989 34.7172C13.8168 35.0227 13.7627 35.2585 13.7338 35.4911H13.2572C13.6573 33.253 14.3884 31.3997 16.3057 28.5199C13.7807 27.0405 12.5309 26.062 10.6498 24.0072C10.0918 24.3016 9.85633 24.523 9.50662 24.9699C11.1059 26.7267 12.1336 27.5241 14.1396 28.7004C13.7229 29.4188 13.3486 30.094 13.009 30.7447L12.2182 30.7378L12.9362 29.2419C10.7681 28.1085 9.65138 27.224 7.88207 25.5716C10.5005 22.9491 12.5116 22.1906 16.6667 21.2395C15.9654 18.8673 15.8534 17.7202 16.065 15.9447L18.5319 16.8472C17.877 23.5098 18.02 26.935 19.0734 32.5512C17.3801 32.7105 16.432 32.6943 14.7413 32.3707L14.1396 33.9952C16.8511 34.0898 18.3259 34 20.7581 33.213C19.9075 27.4517 20.0963 21.5403 21.5403 18.7124C22.8349 19.6867 23.4209 20.3104 24.2479 21.5403C22.8459 22.7044 22.0865 23.5848 20.7581 25.3911C20.9081 33.0861 21.733 36.5768 24.6089 41.2154L25.1504 40.6739C23.9859 38.2599 23.4579 36.796 22.7437 33.9952C23.7206 36.3652 24.3643 37.6617 25.9326 39.8316C26.926 38.7186 27.4618 37.984 28.3995 36.5825C32.9885 39.3431 35.7106 40.3324 40.7942 41.2154C40.3874 39.0387 40.0019 37.3901 39.5072 35.7401H40.4378L40.4934 35.8604C42.5334 35.4337 43.6511 35.1572 45.3069 34.1757C44.7855 32.013 44.2945 30.8441 43.1408 28.8207L41.4561 29.6029C42.4946 31.2435 42.9431 32.1655 43.4416 33.8147C42.3677 34.4187 41.5927 34.6698 40.1324 35.0782L40.4345 35.7328H39.505C39.0675 34.2744 38.5445 32.8143 37.846 30.9868L36.4019 31.3478C37.0781 33.8717 37.3231 35.2825 37.3646 37.7858C33.2246 37.3993 31.2358 36.6062 28.0987 34.4766L25.7521 37.7858C23.0755 32.6383 22.5267 30.1421 22.142 25.9326C23.2276 24.3268 23.8746 23.5844 25.0903 22.503C26.9555 25.1504 27.6173 27.3165 24.5487 29.1216C23.8559 28.2916 23.5962 27.4232 23.3454 26.3538L22.864 26.9555C23.0266 28.4498 23.1733 29.2549 23.6462 30.5656C25.4295 29.9653 26.2008 29.4532 27.3165 28.3394C26.8384 29.4445 25.8343 30.2939 23.8869 31.3478L24.2479 32.3707C30.0241 29.1216 30.4752 26.2732 26.4741 21.42C27.6183 20.3561 28.2969 19.9086 29.6029 19.3743C30.1734 24.9663 30.1014 28.1105 28.3995 33.7545L29.2419 34.2359C30.2062 31.7572 30.5735 30.2494 31.0469 27.4368C31.1822 30.4224 31.0059 32.0417 30.2647 34.8376C32.132 36.2546 33.3156 36.7827 35.8002 37.0036C35.8314 34.9668 35.7064 33.7053 35.1384 31.1673C40.4253 29.6389 43.1229 28.462 47.1721 25.4513C43.747 23.1016 41.7509 21.9909 38.0265 20.4573L37.3045 21.781C39.6337 22.96 40.7586 23.6454 42.4188 25.331C39.9994 27.6794 38.0082 28.7275 33.574 29.8436C34.2306 32.151 34.4262 33.4642 34.296 35.8604C33.0405 35.4861 32.4209 35.1797 31.4681 34.4766C32.4828 28.6834 32.4746 25.1847 31.2274 18.4116C33.0053 17.8465 34.0077 17.7649 35.8002 17.9302L35.8965 17.6896H36.491C36.02 19.0656 35.275 20.5403 34.0554 22.503C36.62 24.0283 37.839 24.9995 39.5909 26.9555L40.9747 26.1131C39.4612 24.4543 38.4014 23.6136 36.1613 22.2624C37.5633 20.0243 38.4745 18.1699 39.1981 16.0106H39.8681L39.5909 16.787C41.4192 17.2123 42.3242 17.4373 43.8026 18.1709C43.4358 19.6706 43.1212 20.4873 42.4188 21.5403L43.1408 22.0217C44.4862 20.3748 44.9866 19.3364 45.6679 17.3887C43.8576 16.2865 42.7221 15.7451 40.1925 15.1023L39.8702 16.0048H39.2C39.7798 14.2736 40.2391 12.3461 40.7341 9.86765C36.7351 10.4742 34.4949 11.0376 30.5054 12.7557L30.9868 14.3803C33.4047 13.5723 34.8395 13.2009 37.3045 13.0566C37.1825 14.7551 36.9919 16.2218 36.4951 17.6777H35.9013L36.1613 17.0277C31.8319 16.7914 29.4921 17.3453 25.5716 20.2768C23.9201 18.7177 22.9289 17.9276 20.9988 16.7269C20.0332 19.0217 19.7162 20.441 19.3742 23.1047C19.2039 20.4386 19.3111 18.9172 20.0963 16.1252C17.879 14.9618 16.5824 14.5104 14.1998 13.9591C14.2296 15.2559 14.296 16.2413 14.484 17.3038H13.3172C13.0762 16.2136 12.9421 15.0342 12.8159 13.3574C16.0596 13.2202 18.1466 14.0743 22.142 16.5464C23.6314 13.8533 24.5891 12.6043 26.5343 10.8905L25.5114 9.62698C23.8796 11.2837 23.1056 12.3143 21.9615 14.3201C21.5514 14.089 21.1559 13.8704 20.772 13.6633L21.3598 13.5379C22.5174 11.0651 23.3202 9.91063 24.9699 8.18294C27.5817 11.1982 28.5612 13.1095 29.302 17.0277C32.2773 16.2989 33.8367 16.1406 36.4019 16.3658C36.5528 15.7274 36.5869 15.3575 36.5824 14.6811C34.168 14.6094 32.8775 14.8053 30.6859 15.5235C30.0686 13.0761 29.4268 11.1899 28.5608 9.35418L29.0398 9.07933C29.0777 9.13185 29.1063 9.15709 29.1215 9.14563C29.4557 8.89383 32.3095 7.51066 33.3333 7.16007C33.9624 8.37756 34.246 9.07803 34.5367 10.4092L35.4994 10.0482C35.1044 8.13796 34.7257 7.08687 33.8748 5.23468C31.6717 5.77218 30.364 6.31 28.3393 7.52108C28.487 7.99684 28.8589 8.82458 29.0365 9.0747L28.5585 9.34934C27.67 7.46685 26.5456 5.63708 24.9699 3.30929C22.7111 6.77109 21.5577 8.79977 19.8556 12.6956L21.3462 13.5303L20.7626 13.6583C18.4587 12.4158 16.5712 11.586 14.4404 10.9364L16.426 11.071C16.815 9.32573 17.1553 8.37664 17.9904 6.73889C19.3579 7.16917 20.0155 7.51027 21.1191 8.18294L21.6607 7.46091C20.0444 6.14169 19.0148 5.62954 17.0277 4.99401C15.7474 6.96084 15.3197 8.17424 14.7413 10.4092L16.4157 11.067L14.4263 10.9321C12.9245 10.4751 11.3014 10.1073 9.32611 9.74732C9.7851 12.2422 10.2033 14.0625 10.8035 15.8817H10.1661L9.9278 14.982L4.81348 16.6065L7.16005 22.142L5.05415 22.0819C3.90537 19.8108 3.46988 18.2561 2.82792 15.6438C4.81563 14.5067 5.99605 14.1133 8.24308 13.4778C7.76793 11.295 7.57512 9.89259 7.34055 7.52108L13.3574 8.72445C14.1564 6.41492 14.7145 5.12294 16.065 2.82794C18.2314 3.45056 19.4637 3.95366 21.6607 5.11434C22.8884 3.14687 23.6413 2.05201 25.1504 0.120361C26.5594 2.18194 27.3271 3.32544 28.4597 5.23468C30.7281 4.13356 32.0749 3.5952 34.657 2.82794C35.8053 5.0138 36.3334 6.26837 36.8833 8.60412C39.2018 8.09458 40.5203 7.78216 42.9001 7.58125L41.6366 13.6583C44.1901 14.5502 45.5592 15.0375 47.8941 16.3057C47.1116 18.6322 46.611 20.0137 45.5475 22.142C47.3479 23.3882 48.3161 24.0293 50 25.4513C48.3454 26.8185 47.3478 27.667 45.3069 28.8207C46.2619 31.0605 46.7694 32.2666 47.5933 34.8376C45.3394 36.1129 44.0613 36.7319 41.7569 37.2443C42.3305 39.5758 42.5488 40.7869 42.7798 43.201Z" fill="#9A814E"/>
<path d="M42.7798 43.201L36.8231 41.9976C35.8828 44.4607 35.2407 45.7635 33.935 47.9543C31.6831 47.433 30.5014 46.8832 28.5199 45.4874C27.2838 47.4569 26.5395 48.5636 25.0903 50.5415C23.6227 48.5766 22.853 47.4353 21.6005 45.3069C19.2565 46.3429 17.9557 46.9599 15.4031 47.6534C14.1201 45.4205 13.6424 44.1826 13.1769 41.9976C10.8766 42.575 9.58642 42.8362 7.28039 43.1408C7.70003 40.7149 7.95482 39.3756 8.48375 37.0638C6.01848 36.118 4.70902 35.5019 2.46691 34.296C3.09769 32.0118 3.57823 30.7855 4.81348 28.7605C2.75981 27.4909 1.8383 26.6998 0 25.3911L5.11432 22.0217L7.22022 22.0818L8.90493 21.1793C7.86678 19.6308 7.43839 18.7161 6.85921 17.0277L10.1685 15.7641H10.8035C11.2317 17.0605 11.7544 18.3611 12.4549 19.9158L14.0193 19.4946C13.7127 18.6824 13.4916 17.9662 13.3227 17.2082H14.4885C14.6316 18.0098 14.8441 18.8569 15.1625 19.9158C10.1193 21.1524 7.48644 22.4367 3.06859 25.5716C5.49768 27.2192 7.20082 28.2858 9.10649 29.2364L7.81363 29.2377L7.09988 28.8809C5.69614 30.5129 5.22704 31.5389 4.63297 33.4537C6.59804 34.6004 7.78475 35.1298 10.1083 35.8002L10.6498 34.1155C8.86989 33.5995 7.90068 33.2583 6.25752 32.491C6.71672 31.2157 7.03701 30.5033 7.8219 29.2419H9.11757C10.062 29.7126 11.0566 30.155 12.2142 30.6258L13.0056 30.6308C11.2814 33.9357 10.451 36.6096 9.50662 41.0951C13.6824 40.4153 15.9533 39.8651 19.6751 38.0866L19.3141 36.7028C16.6588 37.5548 15.2922 37.7136 12.9362 37.7858C13.0272 36.9067 13.1233 36.1216 13.2557 35.3791H13.7327C13.7055 35.6024 13.7015 35.8234 13.7184 36.1011C15.6803 36.2271 16.8937 36.1582 19.4946 35.4994C20.3996 38.5743 21.2297 40.7253 22.3032 42.8315L21.5447 42.8334C21.3248 42.4931 21.1804 42.1982 20.9988 41.7569C19.4765 42.604 18.5812 43.0482 16.8472 43.7425C16.1794 42.6371 15.9158 41.9162 15.6438 40.4332L14.7413 40.7341C15.1418 43.0331 15.5174 44.112 16.3658 45.7882C18.6726 44.9627 19.8773 44.4164 21.8412 43.2611C21.7285 43.1069 21.6331 42.97 21.5489 42.84H22.3075C23.0729 44.3406 23.962 45.8191 25.0903 47.5933C26.2056 46.0366 27.05 44.7595 27.8114 43.4416H28.5199C30.1255 44.7798 31.1679 45.2895 33.0927 46.0891C34.3325 44.0183 34.8303 42.7874 35.4392 40.4934L33.7545 39.9519C33.2584 41.7379 32.8958 42.69 32.0698 44.284C30.7561 43.806 30.0686 43.4678 28.941 42.7196L28.5238 43.4349L27.8182 43.4299C28.6882 41.9228 29.4502 40.3614 30.3851 38.2671L28.941 37.4248C27.7639 39.6942 27.0057 40.8719 25.3309 42.6594C22.6537 39.6003 21.7314 37.6388 20.9988 33.7545C18.341 34.5363 16.7659 34.6396 13.8989 34.5969C13.8168 34.9023 13.7627 35.1381 13.7338 35.3708H13.2572C13.6573 33.1326 14.3884 31.2794 16.3057 28.3995C13.7807 26.9201 12.5309 25.9416 10.6498 23.8869C10.0918 24.1813 9.85633 24.4027 9.50662 24.8496C11.1059 26.6063 12.1336 27.4037 14.1396 28.58C13.7229 29.2984 13.3486 29.9736 13.009 30.6243L12.2182 30.6174L12.9362 29.1215C10.7681 27.9882 9.65138 27.224 7.88207 25.5716C10.5005 22.9491 12.5116 22.0702 16.6667 21.1191C15.9654 18.7469 15.8534 17.5998 16.065 15.8243L18.5319 16.7268C17.877 23.3894 18.02 26.8147 19.0734 32.4308C17.3801 32.5901 16.432 32.5739 14.7413 32.2503L14.1396 33.8748C16.8511 33.9694 18.3259 33.8797 20.7581 33.0927C19.9075 27.3314 20.0963 21.42 21.5403 18.5921C22.8349 19.5663 23.4209 20.19 24.2479 21.42C22.8459 22.584 22.0865 23.4645 20.7581 25.2708C20.9081 32.9658 21.733 36.4565 24.6089 41.0951L25.1504 40.5536C23.9859 38.1396 23.4579 36.6756 22.7437 33.8748C23.7206 36.2448 24.3643 37.5414 25.9326 39.7112C26.926 38.5983 27.4618 37.8636 28.3995 36.4621C32.9885 39.2228 35.7106 40.2121 40.7942 41.0951C40.3874 38.9183 40.0019 37.2697 39.5072 35.6197H40.4378L40.4934 35.7401C42.5334 35.3133 43.6511 35.0368 45.3069 34.0554C44.7855 31.8926 44.2945 30.7237 43.1408 28.7004L41.4561 29.4826C42.4946 31.1232 42.9431 32.0451 43.4416 33.6943C42.3677 34.2983 41.5927 34.5495 40.1324 34.9579L40.4345 35.6125H39.505C39.0675 34.1541 38.5445 32.694 37.846 30.8664L36.4019 31.2274C37.0781 33.7514 37.3231 35.1621 37.3646 37.6655C33.2246 37.2789 31.2358 36.4859 28.0987 34.3562L25.7521 37.6655C23.0755 32.518 22.5267 30.0218 22.142 25.8123C23.2276 24.2065 23.8746 23.464 25.0903 22.3827C26.9555 25.0301 27.6173 27.1961 24.5487 29.0012C23.8559 28.1713 23.5962 27.3028 23.3454 26.2335L22.864 26.8351C23.0266 28.3294 23.1733 29.1346 23.6462 30.4452C25.4295 29.8449 26.2008 29.3328 27.3165 28.219C26.8384 29.3241 25.8343 30.1735 23.8869 31.2274L24.2479 32.2503C30.0241 29.0012 30.4752 26.1528 26.4741 21.2996C27.6183 20.2358 28.2969 19.7882 29.6029 19.2539C30.1734 24.8459 30.1014 27.9901 28.3995 33.6342L29.2419 34.1155C30.2062 31.6369 30.5735 30.129 31.0469 27.3165C31.1822 30.302 31.0059 31.9213 30.2647 34.7172C32.132 36.1342 33.3156 36.6624 35.8002 36.8833C35.8314 34.8465 35.7064 33.5849 35.1384 31.0469C40.4253 29.5186 43.1229 28.3416 47.1721 25.3309C43.747 22.9812 41.7509 21.8705 38.0265 20.3369L37.3045 21.6607C39.6337 22.8397 40.7586 23.6453 42.4188 25.3309C39.9994 27.6793 38.0082 28.6072 33.574 29.7232C34.2306 32.0306 34.4262 33.3439 34.296 35.7401C33.0405 35.3657 32.4209 35.0594 31.4681 34.3562C32.4828 28.5631 32.4746 25.0643 31.2274 18.2912C33.0053 17.7261 34.0077 17.6445 35.8002 17.8099L35.8965 17.5692H36.491C36.02 18.9452 35.275 20.42 34.0554 22.3827C36.62 23.9079 37.839 24.8791 39.5909 26.8351L40.9747 25.9928C39.4612 24.3339 38.4014 23.4933 36.1613 22.142C37.5633 19.9039 38.4745 18.0495 39.1981 15.8903H39.8681L39.5909 16.6667C41.4192 17.0919 42.3242 17.4372 43.8026 18.1709C43.4358 19.6705 43.1212 20.3669 42.4188 21.42L43.1408 21.9013C44.4862 20.2544 44.9866 19.2161 45.6679 17.2684C43.8576 16.1662 42.7221 15.6247 40.1925 14.9819L39.8702 15.8845H39.2C39.7798 14.1532 40.2391 12.2257 40.7341 9.74729C36.7351 10.3538 34.4949 10.9172 30.5054 12.6354L30.9868 14.2599C33.4047 13.452 34.8395 13.2009 37.3045 13.0566C37.1825 14.755 36.9919 16.1015 36.4951 17.5573H35.9013L36.1613 16.9073C31.8319 16.671 29.4921 17.2249 25.5716 20.1564C23.9201 18.5974 22.9289 17.8073 20.9988 16.6065C20.0332 18.9013 19.7162 20.3206 19.3742 22.9844C19.2039 20.3182 19.3111 18.7968 20.0963 16.0048C17.879 14.8414 16.5824 14.3901 14.1998 13.8387C14.2296 15.1355 14.296 16.1209 14.484 17.1834H13.3172C13.0762 16.0933 12.9421 14.9138 12.8159 13.2371C16.0596 13.0998 18.1466 13.9539 22.142 16.426C23.6314 13.733 24.5891 12.4839 26.5343 10.7702L25.5114 9.50662C23.8796 11.1633 23.1056 12.194 21.9615 14.1998C21.5514 13.9687 21.1559 13.7501 20.772 13.5429L21.3598 13.4176C22.5174 10.9448 23.3202 9.79027 24.9699 8.06258C27.5817 11.0778 28.5612 12.9892 29.302 16.9073C32.2773 16.1786 33.8367 16.0203 36.4019 16.2455C36.5528 15.607 36.5869 15.2371 36.5824 14.5608C34.168 14.489 32.8775 14.6849 30.6859 15.4031C30.0686 12.9557 29.4268 11.0695 28.5608 9.23382L29.0398 8.95896C29.0777 9.01149 29.1063 9.03673 29.1215 9.02527C29.4557 8.77347 32.3095 7.3903 33.3333 7.03971C33.9624 8.25719 34.246 8.95767 34.5367 10.2888L35.4994 9.9278C35.1044 8.0176 34.7257 6.9665 33.8748 5.11432C31.6717 5.65182 30.364 6.18964 28.3393 7.40072C28.487 7.87648 28.8589 8.70421 29.0365 8.95434L28.5585 9.22898C27.67 7.34649 26.5456 5.51671 24.9699 3.18893C22.7111 6.65073 21.5577 8.67941 19.8556 12.5752L21.3462 13.41L20.7626 13.5379C18.4587 12.2955 16.5712 11.4657 14.4404 10.8161L16.426 10.9507C16.815 9.20537 17.1553 8.25628 17.9904 6.61853C19.3579 7.04881 20.0155 7.38991 21.1191 8.06258L21.6607 7.34055C20.0444 6.02133 19.0148 5.50918 17.0277 4.87365C15.7474 6.84047 15.3197 8.05387 14.7413 10.2888L16.4157 10.9466L14.4263 10.8118C12.9245 10.3548 11.3014 9.9869 9.32611 9.62696C9.7851 12.1219 10.2033 13.9421 10.8035 15.7613H10.1661L9.9278 14.8616L4.81348 16.4862L7.16005 22.0217L5.05415 21.9615C3.90537 19.6904 3.46988 18.2561 2.82792 15.6438C4.81563 14.5067 5.99605 13.9929 8.24308 13.3574C7.76793 11.1747 7.57512 9.89257 7.34055 7.52106L13.3574 8.60409C14.1564 6.29455 14.7145 5.00258 16.065 2.70758C18.2314 3.3302 19.4637 3.8333 21.6607 4.99398C22.8884 3.02651 23.6413 1.93165 25.1504 0C26.5594 2.06158 27.3271 3.20508 28.4597 5.11432C30.7281 4.0132 32.0749 3.47484 34.657 2.70758C35.8053 4.89344 36.3334 6.14801 36.8833 8.48375C39.2018 7.97421 40.5203 7.78214 42.9001 7.58123L41.6366 13.5379C44.1901 14.4298 45.5592 15.0375 47.8941 16.3057C47.1116 18.6322 46.611 19.8933 45.5475 22.0217C47.3479 23.2679 48.3161 24.0293 50 25.4513C48.3454 26.8184 47.3478 27.5466 45.3069 28.7004C46.2619 30.9402 46.7694 32.2666 47.5933 34.8375C45.3394 36.1129 44.0613 36.6115 41.7569 37.1239C42.3305 39.4555 42.5488 40.7868 42.7798 43.201Z" fill="#9A814E"/>
</svg>
